HIERARCHY
ROOT Hips
{
   OFFSET 0.00000 0.00000 0.00000
   CHANNELS 6 Xposition Yposition Zposition Zrotation Xrotation Yrotation
   JOINT Spine
   {
      OFFSET 0.000000 11.890501 0.000000
      CHANNELS 3 Zrotation Xrotation Yrotation
      JOINT Spine1
      {
         OFFSET -0.000000 25.657401 0.127660
         CHANNELS 3 Zrotation Xrotation Yrotation
         JOINT HEad
         {
            OFFSET 0.000000 8.734161 0.011340
            CHANNELS 3 Zrotation Xrotation Yrotation
            End Site
            {
               OFFSET -0.290000 12.774200 2.513950
            }
         }
         JOINT LeftShoulder1
         {
            OFFSET 8.990000 -0.362250 -0.220000
            CHANNELS 3 Zrotation Xrotation Yrotation
            JOINT LeftArm
            {
               OFFSET 10.282700 -0.003380 0.322120
               CHANNELS 3 Zrotation Xrotation Yrotation
               JOINT LeftForeArm
               {
                  OFFSET 32.766900 0.099140 -1.424340
                  CHANNELS 3 Zrotation Xrotation Yrotation
                  JOINT LeftHand
                  {
                     OFFSET 27.564301 0.085360 1.022160
                     CHANNELS 3 Zrotation Xrotation Yrotation
                     End Site
                     {
                        OFFSET 16.744301 -0.600000 1.502910
                     }
                  }
               }
            }
         }
         JOINT RightShoulder
         {
            OFFSET -8.990000 -0.362250 -0.220000
            CHANNELS 3 Zrotation Xrotation Yrotation
            JOINT RightArm
            {
               OFFSET -10.282700 -0.003380 0.322120
               CHANNELS 3 Zrotation Xrotation Yrotation
               JOINT RightForeArm
               {
                  OFFSET -32.897098 0.099140 -1.424340
                  CHANNELS 3 Zrotation Xrotation Yrotation
                  JOINT RightHand
                  {
                     OFFSET -27.492101 0.085360 1.022160
                     CHANNELS 3 Zrotation Xrotation Yrotation
                     End Site
                     {
                        OFFSET -16.631201 -0.600000 1.502910
                     }
                  }
               }
            }
         }
      }
   }
   JOINT LeftUpLeg
   {
      OFFSET 8.945800 -8.667070 0.101650
      CHANNELS 3 Zrotation Xrotation Yrotation
      JOINT LeftLeg
      {
         OFFSET 0.000000 -44.422697 1.372700
         CHANNELS 3 Zrotation Xrotation Yrotation
         JOINT LeftFoot
         {
            OFFSET -0.253550 -42.092399 -1.460590
            CHANNELS 3 Zrotation Xrotation Yrotation
            JOINT LeftToes
            {
               OFFSET -0.040000 -4.415090 8.499099
               CHANNELS 3 Zrotation Xrotation Yrotation
               End Site
               {
                  OFFSET 0.080000 -0.047450 9.779790
               }
            }
         }
      }
   }
   JOINT RightUpLeg
   {
      OFFSET -8.945800 -8.667070 0.101650
      CHANNELS 3 Zrotation Xrotation Yrotation
      JOINT RightLeg
      {
         OFFSET 0.000000 -44.422697 1.372700
         CHANNELS 3 Zrotation Xrotation Yrotation
         JOINT RightFoot
         {
            OFFSET 0.253550 -42.092399 -1.460590
            CHANNELS 3 Zrotation Xrotation Yrotation
            JOINT RightToes
            {
               OFFSET 0.040000 -4.415090 8.499099
               CHANNELS 3 Zrotation Xrotation Yrotation
               End Site
               {
                  OFFSET -0.080000 -0.137450 9.779790
               }
            }
         }
      }
   }
}
MOTION
Frames: 15
Frame Time: 0.016670
22.479727 87.439192 -1.914117 25.207131 37.708573 162.570947 10.948252 53.073968 -33.994599 -1.993495 -7.570382 -16.925246 6.829312 30.501545 14.530357 24.531142 10.815985 59.472137 -90.495587 -7.638481 -45.798259 -68.029681 36.396685 -72.859192 34.148979 61.237680 -54.132272 3.065636 32.711367 77.346175 46.793127 -69.455545 -1.442818 29.258072 9.202987 60.681197 64.043214 0.958911 40.155550 1.862670 8.999430 -39.131428 -5.292711 20.913658 92.300977 -27.249166 41.290399 -14.476956 15.307367 -4.987069 -60.106976 -34.715895 45.656167 -9.449314 17.937445 33.905059 52.854179 -44.937758 -9.062248 25.900340 49.333582 -45.375996 -34.993986
22.310540 87.444066 -1.764562 21.178928 39.111340 169.766906 14.563107 53.428759 -35.606872 -1.724749 -7.255315 -16.239439 5.411964 27.817487 14.405663 24.077803 11.836306 56.957098 -94.564959 -16.138864 -48.525550 -69.527132 42.977903 -70.415753 26.867060 41.297284 -38.887884 -0.957795 28.654303 86.611368 53.937830 -76.504867 6.793365 33.651393 10.050197 62.499147 62.010406 1.877639 42.878524 -1.902158 9.200302 -42.721850 -4.063991 21.290154 90.393271 -25.682614 40.460907 -14.240669 13.183246 -4.070162 -60.307900 -35.686994 47.465119 -13.197538 15.175743 33.074914 62.064993 -45.679445 -9.694595 26.000184 42.453338 -48.714849 -52.006925
22.046625 87.482403 -1.620940 15.974983 40.876889 178.355036 19.154641 52.531654 -38.132611 -2.111872 -6.074220 -15.978258 3.670418 25.128993 14.041684 23.650001 12.297817 53.106473 -99.841499 -25.043082 -53.664475 -70.405248 47.857271 -68.741872 23.163536 38.262730 -40.894006 -1.047065 27.193643 79.937105 87.314796 -71.131694 44.860467 37.490048 11.770317 63.390965 60.808484 3.457950 43.711411 -6.533121 10.582597 -46.311377 -2.494177 21.892623 87.763717 -24.196104 39.534429 -13.912437 11.310635 -3.140480 -60.304198 -36.625633 49.802181 -16.627932 11.345955 33.136963 69.409885 -43.869110 -9.789270 25.955612 37.524506 -47.335472 -57.994535
21.733339 87.555340 -1.495171 9.408716 42.395910 188.835674 23.662299 50.395093 -41.125003 -3.413340 -5.049807 -15.721128 1.292927 22.130685 13.627430 24.680588 14.557066 57.870547 -105.008653 -24.496624 -55.848428 -69.864338 51.294393 -68.128029 22.007312 20.602280 -33.817073 -2.715161 25.415636 72.393414 106.253011 -62.443823 67.712972 42.023900 14.218325 65.059389 59.270312 3.961006 44.929678 -10.593372 12.955560 -49.806907 -1.542958 21.618228 83.935580 -22.997559 38.983964 -13.902701 9.903984 -1.951883 -60.231197 -37.008478 53.077759 -19.700852 8.764634 34.086199 71.290769 -43.013249 -9.280714 25.882295 31.381854 -48.165941 -65.337453
21.438448 87.584084 -1.398435 3.108829 42.284557 198.847734 27.001522 47.310924 -41.729222 -4.983262 -5.205967 -15.183089 -1.734879 19.326886 13.229288 23.449358 14.074800 49.766811 -108.414623 -30.034524 -61.009661 -69.523635 53.848658 -67.534725 20.335662 17.493549 -36.012166 -10.825468 16.861953 73.991651 130.400414 -59.295768 85.178326 46.189240 16.773018 67.950519 57.552424 4.556060 45.054014 -13.819435 15.135727 -50.851872 -0.115306 20.009970 79.311685 -21.926668 38.451602 -13.776039 8.705275 -0.687678 -60.236907 -36.086748 55.394381 -20.825523 8.919583 34.071466 68.583473 -42.254771 -8.513599 25.921649 28.157844 -46.952756 -66.990099
21.234917 87.540997 -1.323288 -2.177069 41.729471 207.132590 30.646133 44.081119 -40.622263 -5.747759 -4.148817 -15.012800 -4.360129 18.095662 11.300082 22.665836 12.549955 40.458376 -110.095655 -31.848660 -65.525058 -69.309351 55.194226 -67.201453 20.807123 9.792235 -32.360535 -12.978464 17.595119 65.234891 136.018463 -47.548895 94.042853 49.119531 20.855443 69.944518 56.509700 4.378166 43.544157 -16.284943 17.244730 -49.851413 1.502137 18.617684 73.857042 -21.012252 37.974288 -13.515981 7.670448 0.628695 -60.405168 -35.177974 57.270146 -20.299459 10.819000 33.948581 62.807920 -41.916393 -7.580403 26.105516 25.734927 -45.874115 -68.210278
21.099741 87.485188 -1.261646 -6.397575 41.781684 213.948381 32.874694 40.960983 -36.852344 -6.912789 -2.150751 -14.114479 -6.850033 17.592819 8.161128 21.172352 11.077232 30.008839 -110.342560 -32.165550 -68.704982 -69.121699 54.602175 -67.672182 20.373672 8.931948 -33.111289 -14.818387 20.219788 56.256874 138.529624 -35.394375 100.955421 50.990760 25.753268 71.413678 56.056114 4.755532 41.263454 -17.920560 19.774552 -47.167924 3.266365 17.686128 67.573882 -20.464078 37.644936 -13.250434 6.798852 1.918679 -60.573000 -33.607778 59.610770 -18.492153 13.479208 33.289584 55.085424 -41.492665 -6.474034 26.193992 24.627476 -44.920286 -67.671281
21.048927 87.510155 -1.278588 -9.749618 40.897165 218.992995 34.951120 37.883159 -31.643191 -6.945159 -1.378777 -13.691792 -8.439471 17.173124 3.821391 19.248151 9.209371 18.896214 -104.806411 -29.450403 -68.636865 -59.091860 51.656321 -76.264663 21.394330 5.216772 -30.472578 -15.331828 24.213374 46.706937 138.220530 -23.387471 106.903061 53.055277 30.108690 72.647859 39.985331 8.815420 29.343063 -19.380064 21.363452 -42.947396 5.259384 16.466855 60.526609 -20.271856 37.340760 -13.027839 6.153133 3.045152 -60.725286 -32.214918 61.146271 -15.775548 16.679991 31.757846 46.415657 -40.912936 -5.525479 26.119159 23.937866 -44.511533 -66.915131
21.064677 87.531947 -1.316564 -11.797067 40.869137 222.563121 36.355243 35.738070 -25.122261 -6.622053 -0.769140 -13.427356 -8.900619 18.119483 -2.896580 17.417607 6.759101 6.723559 -96.941114 -24.227501 -67.196760 -46.011368 45.347081 -87.204556 21.098420 5.305778 -30.936703 -14.791751 28.856716 37.053882 134.985903 -11.679075 111.832709 49.994458 31.852457 73.272657 40.609443 10.512791 26.662219 -19.871411 23.120040 -38.537563 7.240162 15.469011 54.043889 -20.356170 37.103500 -12.775865 5.747404 3.842344 -60.874491 -30.590921 62.582407 -12.980453 19.608389 30.261399 38.638766 -39.823650 -4.621227 26.333822 23.644754 -44.501459 -65.647571
21.162038 87.580622 -1.449776 -11.970079 40.698591 222.876067 37.358358 34.628376 -17.538912 -6.542759 -0.466244 -13.896464 -7.915965 20.310674 -9.953566 15.968653 4.787908 -3.511627 -88.530918 -17.847271 -65.648841 -41.451257 35.244722 -91.894663 20.002580 8.293397 -30.317448 -13.694323 33.277027 27.700741 132.228542 -5.329635 114.025992 46.962089 31.682109 73.532717 34.298621 14.414204 20.506012 -19.693373 23.359296 -32.503463 8.970884 14.176398 48.009768 -20.718305 36.943622 -12.690533 5.688296 4.226843 -61.152576 -30.215609 62.564048 -8.533984 23.127910 28.674784 28.007973 -36.577545 -3.579621 26.542928 24.359742 -45.226162 -59.963289
21.307797 87.673653 -1.645516 -10.895232 41.140227 220.774568 37.898517 33.976414 -9.034355 -6.038666 0.426993 -14.114053 -5.916676 22.604608 -17.325241 14.771237 4.117241 -12.285725 -83.075618 -14.166645 -65.338751 -40.320669 28.413609 -94.853822 18.079567 11.483033 -30.515533 -11.164300 36.780808 18.956423 130.513632 -1.440019 114.583882 41.385103 27.666648 73.655162 39.239976 13.334297 21.662976 -18.873519 23.039616 -25.107483 10.061929 12.753170 42.648890 -21.050455 37.019356 -12.499284 6.037767 4.130666 -61.479147 -30.126233 61.590903 -2.390342 25.953505 25.577674 18.533344 -37.200687 -3.374909 27.019767 28.489882 -44.421723 -54.507963
21.509099 87.815217 -1.905050 -8.606444 41.626643 216.700155 38.508255 34.281126 -1.806707 -5.110203 1.188603 -14.903082 -3.601860 23.762056 -23.653456 13.550951 3.450177 -17.947063 -79.404979 -12.624944 -65.548465 -40.507591 23.925755 -96.785570 16.445323 12.427545 -28.791413 -8.145822 38.747397 12.036322 131.765646 -1.814232 111.985207 37.541301 25.259190 73.182977 27.125955 20.203153 15.634265 -17.553724 22.103109 -16.584048 10.452981 11.107326 38.073664 -21.404717 37.179472 -12.177681 6.660070 3.419623 -61.925828 -30.373677 59.764695 5.325682 28.144904 22.786460 8.930917 -32.809988 -2.393216 27.677793 28.161268 -44.457650 -47.606975
21.731906 88.023394 -2.237599 -4.936427 42.528852 210.949040 39.415092 36.100166 3.854839 -3.228946 2.763252 -16.365051 -1.316305 23.549335 -29.154126 12.047858 2.939349 -21.431414 -76.496336 -12.210566 -66.007249 -47.474463 22.552834 -95.648542 14.869218 18.506261 -30.084716 1.406253 38.521324 -3.139237 128.563531 3.257188 104.584956 33.910240 22.994949 71.196594 39.544565 9.656813 25.346058 -15.125136 21.224120 -8.730151 10.483336 9.803856 34.879187 -21.857947 37.702248 -12.084234 7.779138 2.397336 -62.399256 -30.864959 57.966087 12.695270 30.071448 22.130115 2.133787 -35.123763 -3.221450 28.099412 33.595805 -46.569312 -42.387741
22.005655 88.344878 -2.644643 -0.354507 43.439648 203.075854 39.535365 38.202064 9.549383 -2.882884 3.008620 -17.267283 0.962478 22.545213 -33.784721 12.789872 5.256869 -33.293296 -75.985998 -22.646004 -67.137338 -49.985005 20.808183 -92.594983 8.320238 4.575361 -21.900701 3.128480 38.593916 -4.795005 133.308545 -1.477590 101.069888 30.316573 22.169643 69.716991 26.606741 19.891833 16.542155 -12.465480 20.421227 -1.310782 10.017486 8.764494 33.066404 -22.300653 38.496278 -11.981307 9.258274 1.105950 -62.865211 -30.896682 55.540359 19.194259 30.032588 19.858874 -2.329158 -34.480724 -3.334933 28.228830 33.916708 -45.915458 -39.194173
22.354850 88.741234 -3.054296 5.172298 44.087286 194.693613 39.218827 40.922887 14.924346 -2.822818 3.457835 -18.205881 3.069821 21.498808 -38.137317 13.473394 6.833423 -40.691303 -75.517146 -29.763990 -67.716169 -52.598723 20.128182 -90.887845 5.435725 -0.493793 -17.916911 5.320638 37.887732 -9.834888 135.444769 -3.766444 96.758639 26.418687 23.122523 68.889404 21.116783 23.299336 14.787949 -9.201371 19.916126 5.902106 9.948801 8.173593 31.501153 -22.945285 39.329701 -11.964293 10.708246 -0.390669 -63.526025 -30.396603 53.130115 25.288490 30.680021 18.305614 -6.399740 -34.214996 -3.217524 28.265686 34.173021 -45.495818 -36.090918
